<mxfile host="app.diagrams.net" agent="Mozilla/5.0 (Windows NT 10.0; Win64; x64; rv:143.0) Gecko/20100101 Firefox/143.0" version="28.2.5">
  <diagram name="PÃ¡gina-1" id="Hl44oNitHqMF7QENZslq">
    <mxGraphModel dx="1042" dy="597" grid="1" gridSize="10" guides="1" tooltips="1" connect="1" arrows="1" fold="1" page="1" pageScale="1" pageWidth="1654" pageHeight="1169" background="#F3D5F0" math="0" shadow="0">
      <root>
        <mxCell id="0" />
        <mxCell id="1" parent="0" />
        <mxCell id="vc5FtgeOKVkO6s-0RQmP-1" value="PROGRAMA" style="whiteSpace=wrap;html=1;align=center;fillColor=#fff2cc;strokeColor=#d6b656;" vertex="1" parent="1">
          <mxGeometry x="777" y="540" width="100" height="40" as="geometry" />
        </mxCell>
        <mxCell id="vc5FtgeOKVkO6s-0RQmP-2" value="NOTA" style="whiteSpace=wrap;html=1;align=center;fillColor=#fff2cc;strokeColor=#d6b656;" vertex="1" parent="1">
          <mxGeometry x="777" y="290" width="100" height="40" as="geometry" />
        </mxCell>
        <mxCell id="vc5FtgeOKVkO6s-0RQmP-3" value="CATEGORIA" style="whiteSpace=wrap;html=1;align=center;fillColor=#fff2cc;strokeColor=#d6b656;" vertex="1" parent="1">
          <mxGeometry x="777" y="70" width="100" height="40" as="geometry" />
        </mxCell>
        <mxCell id="vc5FtgeOKVkO6s-0RQmP-5" value="USUARIO" style="whiteSpace=wrap;html=1;align=center;fillColor=#fff2cc;strokeColor=#d6b656;" vertex="1" parent="1">
          <mxGeometry x="360" y="335" width="100" height="40" as="geometry" />
        </mxCell>
        <mxCell id="vc5FtgeOKVkO6s-0RQmP-6" value="COMENTARIO" style="whiteSpace=wrap;html=1;align=center;fillColor=#fff2cc;strokeColor=#d6b656;" vertex="1" parent="1">
          <mxGeometry x="360" y="545" width="100" height="40" as="geometry" />
        </mxCell>
        <mxCell id="vc5FtgeOKVkO6s-0RQmP-7" value="Escribe" style="shape=rhombus;perimeter=rhombusPerimeter;whiteSpace=wrap;html=1;align=center;fillColor=#dae8fc;strokeColor=#6c8ebf;" vertex="1" parent="1">
          <mxGeometry x="767" y="390" width="120" height="60" as="geometry" />
        </mxCell>
        <mxCell id="vc5FtgeOKVkO6s-0RQmP-8" value="Divide" style="shape=rhombus;perimeter=rhombusPerimeter;whiteSpace=wrap;html=1;align=center;fillColor=#dae8fc;strokeColor=#6c8ebf;" vertex="1" parent="1">
          <mxGeometry x="767" y="160" width="120" height="60" as="geometry" />
        </mxCell>
        <mxCell id="vc5FtgeOKVkO6s-0RQmP-9" value="Pone" style="shape=rhombus;perimeter=rhombusPerimeter;whiteSpace=wrap;html=1;align=center;fillColor=#dae8fc;strokeColor=#6c8ebf;" vertex="1" parent="1">
          <mxGeometry x="350" y="435" width="120" height="60" as="geometry" />
        </mxCell>
        <mxCell id="vc5FtgeOKVkO6s-0RQmP-10" value="Pertenece" style="shape=rhombus;perimeter=rhombusPerimeter;whiteSpace=wrap;html=1;align=center;fillColor=#dae8fc;strokeColor=#6c8ebf;" vertex="1" parent="1">
          <mxGeometry x="580" y="60" width="120" height="60" as="geometry" />
        </mxCell>
        <mxCell id="vc5FtgeOKVkO6s-0RQmP-11" value="" style="endArrow=none;html=1;rounded=0;exitX=0.5;exitY=1;exitDx=0;exitDy=0;entryX=0.5;entryY=0;entryDx=0;entryDy=0;" edge="1" parent="1" source="vc5FtgeOKVkO6s-0RQmP-5" target="vc5FtgeOKVkO6s-0RQmP-9">
          <mxGeometry relative="1" as="geometry">
            <mxPoint x="730" y="320" as="sourcePoint" />
            <mxPoint x="890" y="320" as="targetPoint" />
          </mxGeometry>
        </mxCell>
        <mxCell id="vc5FtgeOKVkO6s-0RQmP-12" value="" style="endArrow=none;html=1;rounded=0;exitX=0.5;exitY=1;exitDx=0;exitDy=0;entryX=0.5;entryY=0;entryDx=0;entryDy=0;" edge="1" parent="1" source="vc5FtgeOKVkO6s-0RQmP-9" target="vc5FtgeOKVkO6s-0RQmP-6">
          <mxGeometry relative="1" as="geometry">
            <mxPoint x="530" y="360" as="sourcePoint" />
            <mxPoint x="410" y="540" as="targetPoint" />
          </mxGeometry>
        </mxCell>
        <mxCell id="vc5FtgeOKVkO6s-0RQmP-13" value="" style="endArrow=none;html=1;rounded=0;exitX=0.5;exitY=1;exitDx=0;exitDy=0;entryX=0.5;entryY=0;entryDx=0;entryDy=0;" edge="1" parent="1" source="vc5FtgeOKVkO6s-0RQmP-8" target="vc5FtgeOKVkO6s-0RQmP-2">
          <mxGeometry relative="1" as="geometry">
            <mxPoint x="610" y="340" as="sourcePoint" />
            <mxPoint x="610" y="400" as="targetPoint" />
          </mxGeometry>
        </mxCell>
        <mxCell id="vc5FtgeOKVkO6s-0RQmP-14" value="" style="endArrow=none;html=1;rounded=0;exitX=0.5;exitY=1;exitDx=0;exitDy=0;entryX=0.5;entryY=0;entryDx=0;entryDy=0;" edge="1" parent="1" source="vc5FtgeOKVkO6s-0RQmP-2" target="vc5FtgeOKVkO6s-0RQmP-7">
          <mxGeometry relative="1" as="geometry">
            <mxPoint x="690" y="370" as="sourcePoint" />
            <mxPoint x="690" y="430" as="targetPoint" />
          </mxGeometry>
        </mxCell>
        <mxCell id="vc5FtgeOKVkO6s-0RQmP-15" value="" style="endArrow=none;html=1;rounded=0;exitX=0.5;exitY=1;exitDx=0;exitDy=0;" edge="1" parent="1" source="vc5FtgeOKVkO6s-0RQmP-7" target="vc5FtgeOKVkO6s-0RQmP-1">
          <mxGeometry relative="1" as="geometry">
            <mxPoint x="1000" y="470" as="sourcePoint" />
            <mxPoint x="1000" y="530" as="targetPoint" />
          </mxGeometry>
        </mxCell>
        <mxCell id="vc5FtgeOKVkO6s-0RQmP-16" value="" style="endArrow=none;html=1;rounded=0;exitX=0.5;exitY=1;exitDx=0;exitDy=0;entryX=0.5;entryY=0;entryDx=0;entryDy=0;" edge="1" parent="1" source="vc5FtgeOKVkO6s-0RQmP-3" target="vc5FtgeOKVkO6s-0RQmP-8">
          <mxGeometry relative="1" as="geometry">
            <mxPoint x="870" y="110" as="sourcePoint" />
            <mxPoint x="870" y="170" as="targetPoint" />
          </mxGeometry>
        </mxCell>
        <mxCell id="vc5FtgeOKVkO6s-0RQmP-17" value="" style="endArrow=none;html=1;rounded=0;exitX=0;exitY=0.5;exitDx=0;exitDy=0;entryX=1;entryY=0.5;entryDx=0;entryDy=0;" edge="1" parent="1" source="vc5FtgeOKVkO6s-0RQmP-3" target="vc5FtgeOKVkO6s-0RQmP-10">
          <mxGeometry relative="1" as="geometry">
            <mxPoint x="640" y="140" as="sourcePoint" />
            <mxPoint x="640" y="200" as="targetPoint" />
          </mxGeometry>
        </mxCell>
        <mxCell id="vc5FtgeOKVkO6s-0RQmP-18" value="" style="endArrow=none;html=1;rounded=0;exitX=0;exitY=0.5;exitDx=0;exitDy=0;entryX=0.5;entryY=0;entryDx=0;entryDy=0;" edge="1" parent="1" source="vc5FtgeOKVkO6s-0RQmP-10" target="vc5FtgeOKVkO6s-0RQmP-3">
          <mxGeometry relative="1" as="geometry">
            <mxPoint x="520" y="100" as="sourcePoint" />
            <mxPoint x="520" y="160" as="targetPoint" />
            <Array as="points">
              <mxPoint x="580" y="40" />
              <mxPoint x="827" y="40" />
            </Array>
          </mxGeometry>
        </mxCell>
        <mxCell id="vc5FtgeOKVkO6s-0RQmP-19" value="UserName" style="ellipse;whiteSpace=wrap;html=1;align=center;fontStyle=4;fillColor=#f8cecc;strokeColor=#b85450;" vertex="1" parent="1">
          <mxGeometry x="510" y="200" width="70" height="40" as="geometry" />
        </mxCell>
        <mxCell id="vc5FtgeOKVkO6s-0RQmP-20" value="Nombre" style="ellipse;whiteSpace=wrap;html=1;align=center;fontStyle=4;fillColor=#f8cecc;strokeColor=#b85450;" vertex="1" parent="1">
          <mxGeometry x="1040" y="450" width="70" height="40" as="geometry" />
        </mxCell>
        <mxCell id="vc5FtgeOKVkO6s-0RQmP-21" value="Titulo" style="ellipse;whiteSpace=wrap;html=1;align=center;fontStyle=4;fillColor=#f8cecc;strokeColor=#b85450;" vertex="1" parent="1">
          <mxGeometry x="950" y="220" width="70" height="40" as="geometry" />
        </mxCell>
        <mxCell id="vc5FtgeOKVkO6s-0RQmP-22" value="ID" style="ellipse;whiteSpace=wrap;html=1;align=center;fontStyle=4;fillColor=#f8cecc;strokeColor=#b85450;" vertex="1" parent="1">
          <mxGeometry x="510" y="530" width="70" height="40" as="geometry" />
        </mxCell>
        <mxCell id="vc5FtgeOKVkO6s-0RQmP-23" value="Nombre" style="ellipse;whiteSpace=wrap;html=1;align=center;fontStyle=4;fillColor=#f8cecc;strokeColor=#b85450;" vertex="1" parent="1">
          <mxGeometry x="1040" y="10" width="70" height="40" as="geometry" />
        </mxCell>
        <mxCell id="vc5FtgeOKVkO6s-0RQmP-24" value="Descripcion" style="ellipse;whiteSpace=wrap;html=1;align=center;fillColor=#ffe6cc;strokeColor=#d79b00;" vertex="1" parent="1">
          <mxGeometry x="1040" y="495" width="80" height="30" as="geometry" />
        </mxCell>
        <mxCell id="vc5FtgeOKVkO6s-0RQmP-25" value="ListaConductores" style="ellipse;whiteSpace=wrap;html=1;align=center;fillColor=#ffe6cc;strokeColor=#d79b00;" vertex="1" parent="1">
          <mxGeometry x="1025" y="535" width="110" height="30" as="geometry" />
        </mxCell>
        <mxCell id="vc5FtgeOKVkO6s-0RQmP-26" value="Horario" style="ellipse;whiteSpace=wrap;html=1;align=center;fillColor=#ffe6cc;strokeColor=#d79b00;" vertex="1" parent="1">
          <mxGeometry x="1040" y="575" width="80" height="30" as="geometry" />
        </mxCell>
        <mxCell id="vc5FtgeOKVkO6s-0RQmP-27" value="HoraFin" style="ellipse;whiteSpace=wrap;html=1;align=center;fillColor=#ffe6cc;strokeColor=#d79b00;" vertex="1" parent="1">
          <mxGeometry x="1215" y="575" width="60" height="30" as="geometry" />
        </mxCell>
        <mxCell id="vc5FtgeOKVkO6s-0RQmP-28" value="HoraInicio" style="ellipse;whiteSpace=wrap;html=1;align=center;fillColor=#ffe6cc;strokeColor=#d79b00;" vertex="1" parent="1">
          <mxGeometry x="1205" y="535" width="80" height="30" as="geometry" />
        </mxCell>
        <mxCell id="vc5FtgeOKVkO6s-0RQmP-29" value="Contenido" style="ellipse;whiteSpace=wrap;html=1;align=center;fillColor=#ffe6cc;strokeColor=#d79b00;" vertex="1" parent="1">
          <mxGeometry x="945" y="270" width="80" height="30" as="geometry" />
        </mxCell>
        <mxCell id="vc5FtgeOKVkO6s-0RQmP-30" value="Imagen" style="ellipse;whiteSpace=wrap;html=1;align=center;fillColor=#ffe6cc;strokeColor=#d79b00;" vertex="1" parent="1">
          <mxGeometry x="945" y="320" width="80" height="30" as="geometry" />
        </mxCell>
        <mxCell id="vc5FtgeOKVkO6s-0RQmP-31" value="Descripcion" style="ellipse;whiteSpace=wrap;html=1;align=center;fillColor=#ffe6cc;strokeColor=#d79b00;" vertex="1" parent="1">
          <mxGeometry x="1035" y="60" width="80" height="30" as="geometry" />
        </mxCell>
        <mxCell id="vc5FtgeOKVkO6s-0RQmP-32" value="Imagen" style="ellipse;whiteSpace=wrap;html=1;align=center;fillColor=#ffe6cc;strokeColor=#d79b00;" vertex="1" parent="1">
          <mxGeometry x="1035" y="100" width="80" height="30" as="geometry" />
        </mxCell>
        <mxCell id="vc5FtgeOKVkO6s-0RQmP-34" value="Texto" style="ellipse;whiteSpace=wrap;html=1;align=center;fillColor=#ffe6cc;strokeColor=#d79b00;" vertex="1" parent="1">
          <mxGeometry x="505" y="580" width="80" height="30" as="geometry" />
        </mxCell>
        <mxCell id="vc5FtgeOKVkO6s-0RQmP-35" value="Password" style="ellipse;whiteSpace=wrap;html=1;align=center;fillColor=#ffe6cc;strokeColor=#d79b00;" vertex="1" parent="1">
          <mxGeometry x="505" y="260" width="80" height="30" as="geometry" />
        </mxCell>
        <mxCell id="vc5FtgeOKVkO6s-0RQmP-36" value="FechaRegistro" style="ellipse;whiteSpace=wrap;html=1;align=center;fillColor=#ffe6cc;strokeColor=#d79b00;" vertex="1" parent="1">
          <mxGeometry x="500" y="300" width="90" height="40" as="geometry" />
        </mxCell>
        <mxCell id="vc5FtgeOKVkO6s-0RQmP-37" value="Avatar" style="ellipse;whiteSpace=wrap;html=1;align=center;fillColor=#ffe6cc;strokeColor=#d79b00;" vertex="1" parent="1">
          <mxGeometry x="505" y="360" width="80" height="30" as="geometry" />
        </mxCell>
        <object label="Mail" Constraint1="1" id="vc5FtgeOKVkO6s-0RQmP-38">
          <mxCell style="ellipse;whiteSpace=wrap;html=1;align=center;fillColor=#ffe6cc;strokeColor=#d79b00;" vertex="1" parent="1">
            <mxGeometry x="505" y="405" width="80" height="30" as="geometry" />
          </mxCell>
        </object>
        <mxCell id="vc5FtgeOKVkO6s-0RQmP-39" value="" style="endArrow=none;html=1;rounded=0;exitX=1;exitY=0.5;exitDx=0;exitDy=0;entryX=0;entryY=0.5;entryDx=0;entryDy=0;" edge="1" parent="1" source="vc5FtgeOKVkO6s-0RQmP-3" target="vc5FtgeOKVkO6s-0RQmP-23">
          <mxGeometry relative="1" as="geometry">
            <mxPoint x="740" y="270" as="sourcePoint" />
            <mxPoint x="900" y="270" as="targetPoint" />
          </mxGeometry>
        </mxCell>
        <mxCell id="vc5FtgeOKVkO6s-0RQmP-40" value="" style="endArrow=none;html=1;rounded=0;exitX=1;exitY=0.5;exitDx=0;exitDy=0;entryX=0;entryY=0.5;entryDx=0;entryDy=0;" edge="1" parent="1" source="vc5FtgeOKVkO6s-0RQmP-3" target="vc5FtgeOKVkO6s-0RQmP-31">
          <mxGeometry relative="1" as="geometry">
            <mxPoint x="980" y="130" as="sourcePoint" />
            <mxPoint x="1143" y="70" as="targetPoint" />
          </mxGeometry>
        </mxCell>
        <mxCell id="vc5FtgeOKVkO6s-0RQmP-41" value="" style="endArrow=none;html=1;rounded=0;exitX=1;exitY=0.5;exitDx=0;exitDy=0;entryX=0;entryY=0.5;entryDx=0;entryDy=0;" edge="1" parent="1" source="vc5FtgeOKVkO6s-0RQmP-3" target="vc5FtgeOKVkO6s-0RQmP-32">
          <mxGeometry relative="1" as="geometry">
            <mxPoint x="1000" y="150" as="sourcePoint" />
            <mxPoint x="1163" y="90" as="targetPoint" />
          </mxGeometry>
        </mxCell>
        <mxCell id="vc5FtgeOKVkO6s-0RQmP-42" value="" style="endArrow=none;html=1;rounded=0;exitX=1;exitY=0.5;exitDx=0;exitDy=0;entryX=0;entryY=0.5;entryDx=0;entryDy=0;" edge="1" parent="1" source="vc5FtgeOKVkO6s-0RQmP-2" target="vc5FtgeOKVkO6s-0RQmP-21">
          <mxGeometry relative="1" as="geometry">
            <mxPoint x="920" y="230" as="sourcePoint" />
            <mxPoint x="1083" y="170" as="targetPoint" />
          </mxGeometry>
        </mxCell>
        <mxCell id="vc5FtgeOKVkO6s-0RQmP-43" value="" style="endArrow=none;html=1;rounded=0;exitX=1;exitY=0.5;exitDx=0;exitDy=0;entryX=0;entryY=0.5;entryDx=0;entryDy=0;" edge="1" parent="1" source="vc5FtgeOKVkO6s-0RQmP-2" target="vc5FtgeOKVkO6s-0RQmP-29">
          <mxGeometry relative="1" as="geometry">
            <mxPoint x="960" y="420" as="sourcePoint" />
            <mxPoint x="1033" y="350" as="targetPoint" />
          </mxGeometry>
        </mxCell>
        <mxCell id="vc5FtgeOKVkO6s-0RQmP-44" value="" style="endArrow=none;html=1;rounded=0;exitX=1;exitY=0.5;exitDx=0;exitDy=0;entryX=0;entryY=0.5;entryDx=0;entryDy=0;" edge="1" parent="1" source="vc5FtgeOKVkO6s-0RQmP-2" target="vc5FtgeOKVkO6s-0RQmP-30">
          <mxGeometry relative="1" as="geometry">
            <mxPoint x="890" y="440" as="sourcePoint" />
            <mxPoint x="963" y="370" as="targetPoint" />
          </mxGeometry>
        </mxCell>
        <mxCell id="vc5FtgeOKVkO6s-0RQmP-45" value="" style="endArrow=none;html=1;rounded=0;exitX=1;exitY=0.5;exitDx=0;exitDy=0;entryX=0;entryY=0.5;entryDx=0;entryDy=0;" edge="1" parent="1" source="vc5FtgeOKVkO6s-0RQmP-1" target="vc5FtgeOKVkO6s-0RQmP-20">
          <mxGeometry relative="1" as="geometry">
            <mxPoint x="940" y="630" as="sourcePoint" />
            <mxPoint x="1013" y="560" as="targetPoint" />
          </mxGeometry>
        </mxCell>
        <mxCell id="vc5FtgeOKVkO6s-0RQmP-46" value="" style="endArrow=none;html=1;rounded=0;exitX=1;exitY=0.5;exitDx=0;exitDy=0;entryX=0;entryY=0.5;entryDx=0;entryDy=0;" edge="1" parent="1" source="vc5FtgeOKVkO6s-0RQmP-1" target="vc5FtgeOKVkO6s-0RQmP-24">
          <mxGeometry relative="1" as="geometry">
            <mxPoint x="980" y="630" as="sourcePoint" />
            <mxPoint x="1053" y="560" as="targetPoint" />
          </mxGeometry>
        </mxCell>
        <mxCell id="vc5FtgeOKVkO6s-0RQmP-47" value="" style="endArrow=none;html=1;rounded=0;exitX=1;exitY=0.5;exitDx=0;exitDy=0;entryX=0;entryY=0.5;entryDx=0;entryDy=0;" edge="1" parent="1" source="vc5FtgeOKVkO6s-0RQmP-1" target="vc5FtgeOKVkO6s-0RQmP-25">
          <mxGeometry relative="1" as="geometry">
            <mxPoint x="980" y="670" as="sourcePoint" />
            <mxPoint x="1053" y="600" as="targetPoint" />
          </mxGeometry>
        </mxCell>
        <mxCell id="vc5FtgeOKVkO6s-0RQmP-48" value="" style="endArrow=none;html=1;rounded=0;exitX=1;exitY=0.5;exitDx=0;exitDy=0;entryX=0;entryY=0.5;entryDx=0;entryDy=0;" edge="1" parent="1" source="vc5FtgeOKVkO6s-0RQmP-1" target="vc5FtgeOKVkO6s-0RQmP-26">
          <mxGeometry relative="1" as="geometry">
            <mxPoint x="990" y="660" as="sourcePoint" />
            <mxPoint x="1063" y="590" as="targetPoint" />
          </mxGeometry>
        </mxCell>
        <mxCell id="vc5FtgeOKVkO6s-0RQmP-49" value="" style="endArrow=none;html=1;rounded=0;exitX=1;exitY=0.5;exitDx=0;exitDy=0;entryX=0;entryY=0.5;entryDx=0;entryDy=0;" edge="1" parent="1" source="vc5FtgeOKVkO6s-0RQmP-26" target="vc5FtgeOKVkO6s-0RQmP-28">
          <mxGeometry relative="1" as="geometry">
            <mxPoint x="1160" y="650" as="sourcePoint" />
            <mxPoint x="1233" y="580" as="targetPoint" />
          </mxGeometry>
        </mxCell>
        <mxCell id="vc5FtgeOKVkO6s-0RQmP-50" value="" style="endArrow=none;html=1;rounded=0;exitX=1;exitY=0.5;exitDx=0;exitDy=0;entryX=0;entryY=0.5;entryDx=0;entryDy=0;" edge="1" parent="1" source="vc5FtgeOKVkO6s-0RQmP-26" target="vc5FtgeOKVkO6s-0RQmP-27">
          <mxGeometry relative="1" as="geometry">
            <mxPoint x="1160" y="710" as="sourcePoint" />
            <mxPoint x="1233" y="640" as="targetPoint" />
          </mxGeometry>
        </mxCell>
        <mxCell id="vc5FtgeOKVkO6s-0RQmP-51" value="" style="endArrow=none;html=1;rounded=0;exitX=1;exitY=0.5;exitDx=0;exitDy=0;entryX=0;entryY=0.5;entryDx=0;entryDy=0;" edge="1" parent="1" source="vc5FtgeOKVkO6s-0RQmP-5" target="vc5FtgeOKVkO6s-0RQmP-19">
          <mxGeometry relative="1" as="geometry">
            <mxPoint x="410" y="360" as="sourcePoint" />
            <mxPoint x="483" y="290" as="targetPoint" />
          </mxGeometry>
        </mxCell>
        <mxCell id="vc5FtgeOKVkO6s-0RQmP-52" value="" style="endArrow=none;html=1;rounded=0;exitX=1;exitY=0.5;exitDx=0;exitDy=0;entryX=0;entryY=0.5;entryDx=0;entryDy=0;" edge="1" parent="1" source="vc5FtgeOKVkO6s-0RQmP-5" target="vc5FtgeOKVkO6s-0RQmP-35">
          <mxGeometry relative="1" as="geometry">
            <mxPoint x="440" y="330" as="sourcePoint" />
            <mxPoint x="513" y="260" as="targetPoint" />
          </mxGeometry>
        </mxCell>
        <mxCell id="vc5FtgeOKVkO6s-0RQmP-53" value="" style="endArrow=none;html=1;rounded=0;exitX=1;exitY=0.5;exitDx=0;exitDy=0;entryX=0;entryY=0.5;entryDx=0;entryDy=0;" edge="1" parent="1" source="vc5FtgeOKVkO6s-0RQmP-5" target="vc5FtgeOKVkO6s-0RQmP-36">
          <mxGeometry relative="1" as="geometry">
            <mxPoint x="470" y="410" as="sourcePoint" />
            <mxPoint x="543" y="340" as="targetPoint" />
          </mxGeometry>
        </mxCell>
        <mxCell id="vc5FtgeOKVkO6s-0RQmP-54" value="" style="endArrow=none;html=1;rounded=0;exitX=1;exitY=0.5;exitDx=0;exitDy=0;entryX=0;entryY=0.5;entryDx=0;entryDy=0;" edge="1" parent="1" source="vc5FtgeOKVkO6s-0RQmP-5" target="vc5FtgeOKVkO6s-0RQmP-37">
          <mxGeometry relative="1" as="geometry">
            <mxPoint x="490" y="420" as="sourcePoint" />
            <mxPoint x="563" y="350" as="targetPoint" />
          </mxGeometry>
        </mxCell>
        <mxCell id="vc5FtgeOKVkO6s-0RQmP-55" value="" style="endArrow=none;html=1;rounded=0;exitX=1;exitY=0.5;exitDx=0;exitDy=0;entryX=0;entryY=0.5;entryDx=0;entryDy=0;" edge="1" parent="1" source="vc5FtgeOKVkO6s-0RQmP-5" target="vc5FtgeOKVkO6s-0RQmP-38">
          <mxGeometry relative="1" as="geometry">
            <mxPoint x="450" y="407.5" as="sourcePoint" />
            <mxPoint x="553" y="432.5" as="targetPoint" />
          </mxGeometry>
        </mxCell>
        <mxCell id="vc5FtgeOKVkO6s-0RQmP-56" value="" style="endArrow=none;html=1;rounded=0;exitX=1;exitY=0.5;exitDx=0;exitDy=0;entryX=0;entryY=0.5;entryDx=0;entryDy=0;" edge="1" parent="1" source="vc5FtgeOKVkO6s-0RQmP-6" target="vc5FtgeOKVkO6s-0RQmP-22">
          <mxGeometry relative="1" as="geometry">
            <mxPoint x="580" y="580" as="sourcePoint" />
            <mxPoint x="653" y="510" as="targetPoint" />
          </mxGeometry>
        </mxCell>
        <mxCell id="vc5FtgeOKVkO6s-0RQmP-57" value="" style="endArrow=none;html=1;rounded=0;exitX=1;exitY=0.5;exitDx=0;exitDy=0;entryX=0;entryY=0.5;entryDx=0;entryDy=0;" edge="1" parent="1" source="vc5FtgeOKVkO6s-0RQmP-6" target="vc5FtgeOKVkO6s-0RQmP-34">
          <mxGeometry relative="1" as="geometry">
            <mxPoint x="470" y="660" as="sourcePoint" />
            <mxPoint x="543" y="590" as="targetPoint" />
          </mxGeometry>
        </mxCell>
      </root>
    </mxGraphModel>
  </diagram>
</mxfile>
